<svg xmlns="http://www.w3.org/2000/svg" width="320" height="320" viewBox="0 0 320 320"><path fill="#998099" d="M160 317.5c-86.8 0-157.5-70.7-157.5-157.5s70.7-157.5 157.5-157.5 157.5 70.7 157.5 157.5-70.7 157.5-157.5 157.5z"/><path fill="#DADBDF" d="M160 5c85.6 0 155 69.4 155 155s-69.4 155-155 155-155-69.4-155-155 69.4-155 155-155m0-5c-42.7 0-82.9 16.6-113.1 46.9-30.3 30.2-46.9 70.4-46.9 113.1s16.6 82.9 46.9 113.1c30.2 30.3 70.4 46.9 113.1 46.9s82.9-16.6 113.1-46.9c30.3-30.2 46.9-70.4 46.9-113.1s-16.6-82.9-46.9-113.1c-30.2-30.3-70.4-46.9-113.1-46.9zm127 222h-260c-1.1 0-2-.9-2-2v-102c0-1.1.9-2 2-2h260c1.1 0 2 .9 2 2v102c0 1.1-.9 2-2 2z"/><path fill="#fff" d="M43 144c0 .6-.5 1-1 1h-12c-.5 0-1-.4-1-1v-12c0-.6.5-1 1-1h12c.5 0 1 .4 1 1v12zm18 0c0 .6-.5 1-1 1h-12c-.5 0-1-.4-1-1v-12c0-.6.5-1 1-1h12c.5 0 1 .4 1 1v12zm18 0c0 .6-.4 1-1 1h-12c-.6 0-1-.4-1-1v-12c0-.6.4-1 1-1h12c.6 0 1 .4 1 1v12zm18 0c0 .6-.4 1-1 1h-12c-.6 0-1-.4-1-1v-12c0-.6.4-1 1-1h12c.6 0 1 .4 1 1v12zm17 0c0 .6-.4 1-1 1h-12c-.6 0-1-.4-1-1v-12c0-.6.4-1 1-1h12c.6 0 1 .4 1 1v12zm18 0c0 .6-.4 1-1 1h-12c-.6 0-1-.4-1-1v-12c0-.6.4-1 1-1h12c.6 0 1 .4 1 1v12zm18 0c0 .6-.4 1-1 1h-12c-.6 0-1-.4-1-1v-12c0-.6.4-1 1-1h12c.6 0 1 .4 1 1v12zm18 0c0 .6-.4 1-1 1h-12c-.6 0-1-.4-1-1v-12c0-.6.4-1 1-1h12c.6 0 1 .4 1 1v12zm18 0c0 .6-.4 1-1 1h-12c-.6 0-1-.4-1-1v-12c0-.6.4-1 1-1h12c.6 0 1 .4 1 1v12zm18 0c0 .6-.4 1-1 1h-12c-.6 0-1-.4-1-1v-12c0-.6.4-1 1-1h12c.6 0 1 .4 1 1v12zm17 0c0 .6-.4 1-1 1h-12c-.6 0-1-.4-1-1v-12c0-.6.4-1 1-1h12c.6 0 1 .4 1 1v12zm18 0c0 .6-.4 1-1 1h-12c-.6 0-1-.4-1-1v-12c0-.6.4-1 1-1h12c.6 0 1 .4 1 1v12zm18 0c0 .6-.5 1-1 1h-12c-.6 0-1-.4-1-1v-12c0-.6.4-1 1-1h12c.5 0 1 .4 1 1v12zm28 0c0 .6-.5 1-1 1h-22c-.5 0-1-.4-1-1v-12c0-.6.5-1 1-1h22c.5 0 1 .4 1 1v12zm0 5c0-.6-.4-1-1-1h-12c-.6 0-1 .4-1 1v12c0 .6.4 1 1 1h12c.6 0 1-.4 1-1v-12zm-18 0c0-.6-.4-1-1-1h-12c-.6 0-1 .4-1 1v12c0 .6.4 1 1 1h12c.6 0 1-.4 1-1v-12zm-18 0c0-.6-.4-1-1-1h-12c-.6 0-1 .4-1 1v12c0 .6.4 1 1 1h12c.6 0 1-.4 1-1v-12zm-18 0c0-.6-.4-1-1-1h-12c-.6 0-1 .4-1 1v12c0 .6.4 1 1 1h12c.6 0 1-.4 1-1v-12zm-17 0c0-.6-.4-1-1-1h-12c-.6 0-1 .4-1 1v12c0 .6.4 1 1 1h12c.6 0 1-.4 1-1v-12zm-18 0c0-.6-.4-1-1-1h-12c-.6 0-1 .4-1 1v12c0 .6.4 1 1 1h12c.6 0 1-.4 1-1v-12zm-18 0c0-.6-.4-1-1-1h-12c-.6 0-1 .4-1 1v12c0 .6.4 1 1 1h12c.6 0 1-.4 1-1v-12zm-18 0c0-.6-.4-1-1-1h-12c-.6 0-1 .4-1 1v12c0 .6.4 1 1 1h12c.6 0 1-.4 1-1v-12zm-18 0c0-.6-.4-1-1-1h-12c-.6 0-1 .4-1 1v12c0 .6.4 1 1 1h12c.6 0 1-.4 1-1v-12zm-18 0c0-.6-.4-1-1-1h-12c-.6 0-1 .4-1 1v12c0 .6.4 1 1 1h12c.6 0 1-.4 1-1v-12zm-17 0c0-.6-.4-1-1-1h-12c-.6 0-1 .4-1 1v12c0 .6.4 1 1 1h12c.6 0 1-.4 1-1v-12zm-18 0c0-.6-.4-1-1-1h-12c-.6 0-1 .4-1 1v12c0 .6.4 1 1 1h12c.6 0 1-.4 1-1v-12zm-18 0c0-.6-.4-1-1-1h-12c-.6 0-1 .4-1 1v12c0 .6.4 1 1 1h12c.6 0 1-.4 1-1v-12zm-18 0c0-.6-.4-1-1-1h-22c-.6 0-1 .4-1 1v12c0 .6.4 1 1 1h22c.6 0 1-.4 1-1v-12zm232 18c0-.6-.4-1-1-1h-27c-.6 0-1 .4-1 1v12c0 .6.4 1 1 1h27c.6 0 1-.4 1-1v-12zm-33 0c0-.6-.4-1-1-1h-12c-.6 0-1 .4-1 1v12c0 .6.4 1 1 1h12c.6 0 1-.4 1-1v-12zm-18 0c0-.6-.4-1-1-1h-12c-.6 0-1 .4-1 1v12c0 .6.4 1 1 1h12c.6 0 1-.4 1-1v-12zm-17 0c0-.6-.4-1-1-1h-12c-.6 0-1 .4-1 1v12c0 .6.4 1 1 1h12c.6 0 1-.4 1-1v-12zm-18 0c0-.6-.4-1-1-1h-12c-.6 0-1 .4-1 1v12c0 .6.4 1 1 1h12c.6 0 1-.4 1-1v-12zm-18 0c0-.6-.4-1-1-1h-12c-.6 0-1 .4-1 1v12c0 .6.4 1 1 1h12c.6 0 1-.4 1-1v-12zm-18 0c0-.6-.4-1-1-1h-12c-.6 0-1 .4-1 1v12c0 .6.4 1 1 1h12c.6 0 1-.4 1-1v-12zm-31 12c0 .6.4 1 1 1h12c.6 0 1-.4 1-1v-12c0-.6-.4-1-1-1h-12c-.6 0-1 .4-1 1v12zm-4-12c0-.6-.4-1-1-1h-12c-.6 0-1 .4-1 1v12c0 .6.4 1 1 1h12c.6 0 1-.4 1-1v-12zm-18 0c0-.6-.4-1-1-1h-12c-.6 0-1 .4-1 1v12c0 .6.4 1 1 1h12c.6 0 1-.4 1-1v-12zm-18 0c0-.6-.4-1-1-1h-12c-.6 0-1 .4-1 1v12c0 .6.4 1 1 1h12c.6 0 1-.4 1-1v-12zm-31 12c0 .6.5 1 1 1h12c.6 0 1-.4 1-1v-12c0-.6-.4-1-1-1h-12c-.5 0-1 .4-1 1v12zm-4-12c0-.6-.4-1-1-1h-26c-.6 0-1 .4-1 1v12c0 .6.4 1 1 1h26c.6 0 1-.4 1-1v-12zm228 17c0-.6-.4-1-1-1h-36c-.6 0-1 .4-1 1v12c0 .6.4 1 1 1h36c.6 0 1-.4 1-1v-12zm-42 0c0-.6-.4-1-1-1h-12c-.6 0-1 .4-1 1v12c0 .6.4 1 1 1h12c.6 0 1-.4 1-1v-12zm-17 0c0-.6-.4-1-1-1h-12c-.6 0-1 .4-1 1v12c0 .6.4 1 1 1h12c.6 0 1-.4 1-1v-12zm-18 0c0-.6-.4-1-1-1h-12c-.6 0-1 .4-1 1v12c0 .6.4 1 1 1h12c.6 0 1-.4 1-1v-12zm-18 0c0-.6-.4-1-1-1h-12c-.6 0-1 .4-1 1v12c0 .6.4 1 1 1h12c.6 0 1-.4 1-1v-12zm-18 0c0-.6-.4-1-1-1h-12c-.6 0-1 .4-1 1v12c0 .6.4 1 1 1h12c.6 0 1-.4 1-1v-12zm-31 12c0 .6.4 1 1 1h12c.6 0 1-.4 1-1v-12c0-.6-.4-1-1-1h-12c-.6 0-1 .4-1 1v12zm-18 0c0 .6.4 1 1 1h12c.6 0 1-.4 1-1v-12c0-.6-.4-1-1-1h-12c-.6 0-1 .4-1 1v12zm-4-12c0-.6-.4-1-1-1h-12c-.6 0-1 .4-1 1v12c0 .6.4 1 1 1h12c.6 0 1-.4 1-1v-12zm-18 0c0-.6-.4-1-1-1h-12c-.6 0-1 .4-1 1v12c0 .6.4 1 1 1h12c.6 0 1-.4 1-1v-12zm-31 12c0 .6.4 1 1 1h12c.6 0 1-.4 1-1v-12c0-.6-.4-1-1-1h-12c-.6 0-1 .4-1 1v12zm-4-12c0-.6-.4-1-1-1h-35c-.6 0-1 .4-1 1v12c0 .6.4 1 1 1h35c.6 0 1-.4 1-1v-12zm182 26c0-.6-.4-1-1-1h-12c-.6 0-1 .4-1 1v6c0 .6.4 1 1 1h12c.6 0 1-.4 1-1v-6zm19 0c0-.6-.4-1-1-1h-12c-.6 0-1 .4-1 1v6c0 .6.4 1 1 1h12c.6 0 1-.4 1-1v-6zm0-10c0-.6-.4-1-1-1h-12c-.6 0-1 .4-1 1v6c0 .6.4 1 1 1h12c.6 0 1-.4 1-1v-6zm18 10c0-.6-.4-1-1-1h-12c-.6 0-1 .4-1 1v6c0 .6.4 1 1 1h12c.6 0 1-.4 1-1v-6zm-55-8c0-.6-.4-1-1-1h-12c-.6 0-1 .4-1 1v14c0 .6.4 1 1 1h12c.6 0 1-.4 1-1v-14zm-17 0c0-.6-.4-1-1-1h-16c-.6 0-1 .4-1 1v14c0 .6.4 1 1 1h16c.6 0 1-.4 1-1v-14zm-22 0c0-.6-.4-1-1-1h-84c-.6 0-1 .4-1 1v14c0 .6.4 1 1 1h84c.6 0 1-.4 1-1v-14zm-90 0c0-.6-.4-1-1-1h-17c-.6 0-1 .4-1 1v14c0 .6.4 1 1 1h17c.6 0 1-.4 1-1v-14zm-23 0c0-.6-.4-1-1-1h-12c-.6 0-1 .4-1 1v14c0 .6.4 1 1 1h12c.6 0 1-.4 1-1v-14zm-17 0c0-.6-.4-1-1-1h-12c-.6 0-1 .4-1 1v14c0 .6.4 1 1 1h12c.6 0 1-.4 1-1v-14zm-18 0c0-.6-.4-1-1-1h-12c-.6 0-1 .4-1 1v14c0 .6.4 1 1 1h12c.6 0 1-.4 1-1v-14zm2-74c0 .6-.5 1-1 1h-14c-.5 0-1-.4-1-1v-8c0-.6.5-1 1-1h14c.5 0 1 .4 1 1v8zm18 0c0 .6-.5 1-1 1h-14c-.5 0-1-.4-1-1v-8c0-.6.5-1 1-1h14c.5 0 1 .4 1 1v8zm19 0c0 .6-.4 1-1 1h-14c-.6 0-1-.4-1-1v-8c0-.6.4-1 1-1h14c.6 0 1 .4 1 1v8zm18 0c0 .6-.4 1-1 1h-14c-.6 0-1-.4-1-1v-8c0-.6.4-1 1-1h14c.6 0 1 .4 1 1v8zm19 0c0 .6-.4 1-1 1h-14c-.6 0-1-.4-1-1v-8c0-.6.4-1 1-1h14c.6 0 1 .4 1 1v8zm18 0c0 .6-.4 1-1 1h-14c-.6 0-1-.4-1-1v-8c0-.6.4-1 1-1h14c.6 0 1 .4 1 1v8zm19 0c0 .6-.4 1-1 1h-14c-.6 0-1-.4-1-1v-8c0-.6.4-1 1-1h14c.6 0 1 .4 1 1v8zm18 0c0 .6-.4 1-1 1h-14c-.6 0-1-.4-1-1v-8c0-.6.4-1 1-1h14c.6 0 1 .4 1 1v8zm19 0c0 .6-.4 1-1 1h-14c-.6 0-1-.4-1-1v-8c0-.6.4-1 1-1h14c.6 0 1 .4 1 1v8zm18 0c0 .6-.4 1-1 1h-14c-.6 0-1-.4-1-1v-8c0-.6.4-1 1-1h14c.6 0 1 .4 1 1v8zm19 0c0 .6-.4 1-1 1h-14c-.6 0-1-.4-1-1v-8c0-.6.4-1 1-1h14c.6 0 1 .4 1 1v8zm18 0c0 .6-.4 1-1 1h-14c-.6 0-1-.4-1-1v-8c0-.6.4-1 1-1h14c.6 0 1 .4 1 1v8zm19 0c0 .6-.5 1-1 1h-14c-.6 0-1-.4-1-1v-8c0-.6.4-1 1-1h14c.5 0 1 .4 1 1v8zm18 0c0 .6-.5 1-1 1h-14c-.5 0-1-.4-1-1v-8c0-.6.5-1 1-1h14c.5 0 1 .4 1 1v8z"/><path stroke="#DADBDF" stroke-width="2.667" stroke-linecap="round" stroke-miterlimit="10" d="M155 116c0-6.9-3.3-84.6 104-77.9" fill="none"/></svg>