<svg xmlns="http://www.w3.org/2000/svg" width="320" height="320" viewBox="0 0 320 320"><path fill="#998099" d="M160 317.5c-86.8 0-157.5-70.7-157.5-157.5s70.7-157.5 157.5-157.5 157.5 70.7 157.5 157.5-70.7 157.5-157.5 157.5z"/><path fill="#DADBDF" d="M160 5c85.6 0 155 69.4 155 155s-69.4 155-155 155-155-69.4-155-155 69.4-155 155-155m0-5c-42.7 0-82.9 16.6-113.1 46.9-30.3 30.2-46.9 70.4-46.9 113.1s16.6 82.9 46.9 113.1c30.2 30.3 70.4 46.9 113.1 46.9s82.9-16.6 113.1-46.9c30.3-30.2 46.9-70.4 46.9-113.1s-16.6-82.9-46.9-113.1c-30.2-30.3-70.4-46.9-113.1-46.9z"/><path stroke="#DADBDF" stroke-width="5" stroke-linecap="round" stroke-miterlimit="10" d="M157.7 85.3c0-6.9 1.3-89.7 101.3-47.2" fill="none"/><path fill="#fff" d="M158.6 269.1c-26.7 0-48.6-24-48.6-53.6v-74.6c0-29.5 21.9-53.6 48.6-53.6s48.5 24 48.5 53.6l-.1 74.6c0 29.6-21.7 53.6-48.4 53.6z"/><path fill="#DADBDF" d="M158.6 89.3c25.6 0 46.5 23.1 46.5 51.6v74.6c0 28.4-21 51.6-46.5 51.6-25.6 0-46.6-23.1-46.6-51.6v-74.6c0-28.4 21.1-51.6 46.6-51.6m0-4c-27.8 0-50.6 24.9-50.6 55.6v74.6c0 30.7 22.9 55.6 50.6 55.6s50.5-24.9 50.5-55.6v-74.6c0-30.7-22.7-55.6-50.5-55.6z"/><path fill="#999" d="M159.5 129.9c-4.7 0-8.5-3.8-8.5-8.5s3.8-8.5 8.5-8.5 8.5 3.8 8.5 8.5-3.8 8.5-8.5 8.5z"/><path fill="#DADBDF" d="M159.5 113.8c4.2 0 7.5 3.4 7.5 7.5s-3.4 7.5-7.5 7.5c-4.2 0-7.5-3.4-7.5-7.5s3.4-7.5 7.5-7.5m0-2c-5.3 0-9.5 4.3-9.5 9.5s4.3 9.5 9.5 9.5 9.5-4.3 9.5-9.5-4.2-9.5-9.5-9.5z"/></svg>