<svg xmlns="http://www.w3.org/2000/svg" width="920" height="320" viewBox="0 0 920 320" class="style0"><style>.style0{enable-background: new 0 0 920 320;}.style1{fill: #669999;}.style2{opacity: 0.5;}.style3{fill: #FFFFFF;}.style4{opacity: 0.25;}.style5{opacity: 0.5;fill: #FFFFFF;}</style><path d="M917.473 98.294c-6.948-13.868-13.265-29.626-13.265-29.626-4.422-20.801-10.107-20.801-10.107-20.801-6.317-8.825-27.793-3.782-27.793-3.782-10.107 5.673-85.275 26.475-103.593 31.5-18.318 5.043-144.652 40.973-144.652 40.973-39.795-14.498-136.44-15.759-136.44-15.759-105.488-3.782-165.497 19.541-165.497 19.541-37.9 23.953-59.377 10.716-59.377 10.716-20.213 0-36.637-13.237-36.637-13.237-24.002-20.119-89.712-44.719-89.712-44.739 20.213-3.782 139.598-46.646 139.598-46.646 80.222-26.475 111.2 2.5 111.2 2.5 26.521 15.166 78.802 59.266 78.802 59.274 24.488 17.6 29.835-6.934 29.835-6.934 1.263-17.65-3.79-19.541-44.848-40.342s-51.797-29.632-80.887-37.19c-29.057-7.564-66.957-2.521-120.017 5.043s-188.834 39.115-188.883 39.081l-4.422.6c-24.635-1.891-30.952.63-30.952.63-27.744 2.504-18.226 37.804-18.226 37.852 17.687 79.4 64.4 136.8 64.4 136.8 48.007 52.3 104.2 45.4 104.2 45.385 39.795 1.3 60.64-37.821 60.64-37.821 14.528-17.019 18.318-49.973 18.318-49.973 25.898 6.1 29.7 17.2 29.7 17.195 10.107 12 27.2 41.6 27.2 41.603 54.955 90.8 156.7 79.4 156.7 79.4 84.643 1.3 126.965-85.097 126.965-85.097 10.738-16.389 34.11-56.101 34.11-56.101.632 0 52.428-22.529 52.428-22.529 42.322-10.552 135.808-55.635 135.808-55.635 19.582-11.346 62.535-34.669 62.535-34.669 18.318 1.9 25.3 60.5 26.5 64.9 1.263 4.4 10.7 21.4 16.423-2.521s-.054-29.585-.027-29.591zm-711.256 133.606c-13.265 39.082-69.483 19.541-69.483 19.541-48.301-16.203-68.852-57.992-79.59-81.315-.347-.755-.683-1.507-1.007-2.257-9.691-22.43-9.1-42.498-9.1-42.498 8.843-17.65 10.107-28.996 10.107-28.996 7.58 1.3 40.427-13.868 40.427-13.868 58.745 15.1 87.8 42.2 87.8 42.233 58.114 52.96 20.829 107.16 20.829 107.188zm344.89-12.6s-15.16 113.463-137.072 78.794c0 0-32.215.63-55.587-46.646-6.008-12.153-9.131-18.172-10.462-20.424 5.065 11 7.3 18.5 7.3 18.533s-11.152-25.041-7.304-18.533c-5.702-12.38-14.986-29.147-28.701-44.502-3.562-3.988-6.139-6.909-7.943-8.991-4.921-5.104-9.938-12.028-7.848-17.552 0 0 2.065-15.691 22.74-25.146 0 0 58.113-25.844 161.075-3.782.004.049 85.895 17.649 63.795 88.27z" class="style1"/><g class="style2"><path d="M537.413 112.862c14.971 1.1 31.1 7.8 31.1 7.8 19.339 11.9 32.7 18.3 32.7 18.308 8.43-8.412 6.042-11.29 6.042-11.29-2.905-11.88-69.855-14.78-69.855-14.818zM569.052 150.377s10.909-11.381-5.454-11.381c0 .004-8.398 11.904 5.502 11.381zM563.598 165.221c.496 9.4 6 6.9 6 6.928 2.479 3.959-2.71 9.896-2.71 9.9 12.659-7.039 5.686-16.824 5.686-16.824-4.51-6.425-8.974-.025-8.974-.004zM851.899 49.56s-90.92 26.462-127.413 36.806-97.081 27.58-106.423 30.2c0 0-2.622-3.716-31.124-7.483 0 0 39.6 9.6 38.6 21.987l1.983-8.907s110.08-35.132 142.807-44.039 65.949-18.308 78.346-22.762c12.396-4.453 35.234-15.998 45.385-7.504.042.042-9.46-13.258-42.16 1.702zM627 176.602v-26.211c0 17.334-4.311 27.962-4.311 27.962l4.311-1.751zM361.948 258.084c-19.004-47.573-50.606-80.532-50.606-80.532-4.823 10.8 11.8 36.7 11.8 36.657 20.295 36.091 38.758 43.891 38.758 43.875zM361.948 277.546s-50.742-38.101-61.651-89.068c0 0-6.942-25.221 10.165-43.784 0 0-23.057 13.105-9.669 56.65 0 0 13.9 43 52.1 74.223 0 0 30.2 25.7 70.9 32.658 0 0 56 11 83.385-17.196-.027-.029-56.278 43.871-145.278-13.483zM187.242 108.811s-14.876-5.443 0 1.484c.988.5 1.9.9 2.8 1.4-1.735-1.695-2.842-2.895-2.842-2.884zM190.075 111.667c3.769 3.6 10.7 9.6 17.5 12-.003.033-4.775-5.667-17.475-12zM36.005 133.058s-12.396-42.06 8.925-52.946c0 0-31.239-2.969-2.479 78.7 0 0 24.3 54.4 57.5 78.182.02.006-46.551-42.594-63.951-103.936zM11.708 94.462c-.992 10.9 4 6.9 4 6.928.959-9.89-4.008-6.89-4.008-6.928zM8.733 74.174s-1.983 9.4 5 9.402c-.041.024 3.667-8.376-5.033-9.402z" class="style3"/></g><g class="style4"><path d="M919.274 102.466c-4.317-11.789-11.551-17.901-15.881-37.349-.201-.904-.404-1.762-.608-2.575-4.174-16.673-8.683-14.676-8.683-14.676-11.638-6.02-47.865 11.463-47.865 11.5-24.777 12.207-38.921 43.084-38.921 43.084 4.009-1.894 67.204-36.897 67.204-36.897 30.897-16.92 41.1 68.6 41.1 68.6 4.87-8.853 3.68-31.653 3.68-31.687zM326.082 115.863s56.032-11.01 130.411-10.515c0 0 106.9.7 151.1 10.5 0 0-21.321-12.846-111.026-14.649.045.001-110.267-3.499-170.467 14.664zM346.908 255.774s9.7 12.1 18.3 15.8c.047.026-5.808-17.774-18.308-15.8zM310.463 231.528c14.132 35.1 67.2 66.3 67.2 66.3-39.184-26.228-67.163-66.328-67.163-66.3zM230.382 199.859c-6.446 31.174-29.572 61.672-29.572 61.7 9.819-4.422 24.521-21.899 24.521-21.899 18.25-17.935 23.84-58.307 23.84-58.307-20.88-2.753-18.771 18.547-18.771 18.506zM274.513 134.047s-26.964-.251-49.523-12.864c0 0-24.261-17.823-48.067-28.406 0 0 38.6 21 40.6 30.878 0 0-5.95 7.4 4.5 10.391 0 0 50.1 5.9 58.5 6.433 1.075.1 1.9.1 2.5.2 4.524-3.192 14.356-9.986 21.287-13.726-.108.047-18.91 10.047-29.81 7.094zM282.915 140.713c-1.528 1.078-2.452 1.747-2.452 1.7s6.414-1.113 2.437-1.7zM44.931 80.112s-16.858 11.574-4.959 51.956c0 0 10.8 45.6 32.4 66.9 0 0-25.489-42.119-26.481-68.344 0 0 1.488-7.422 5.95-16.824 0 0 6.08-7.993 5.271-17.357 0 0 14.721-3.032 40.427-13.868.032-.075-34.239-9.875-52.639-2.463z" class="style5"/></g><path d="M130.417 73.08s-43.446-18.757-79.59-24.584c0 0 168.067-36.198 193.29-39.712 0 .016-74.017 17.516-113.717 64.296zM910.004 104.978s-10.672-50.924-35.484-39.462c0-.016 21.08-1.116 35.48 39.462zM533.521 297.834s73.547-79.487 82.803-153.14c0 0 10.6 14.3 6.9 33.7.029.006-48.224 96.206-89.724 119.44zM387.14 291.641s-93.12-46.534-88.659-129.279c0 .038-2.381 70.838 88.619 129.279zM66.646 77.342s-61.559-14.989-19.737 85.02c0 .038-36.709-86.662 19.691-85.02zM249.17 181.325s-15.979-5.712-18.789 18.534c0 0 13.1 37.08-29.572 61.7 0-.059 45.491-30.059 48.391-80.234zM274.513 144.694s-16.579 30.861-56.553-12.49c0-.004 22.14 21.496 56.54 12.49zM136.734 251.469s-44.474-.784-85.907-81.04h-2.629s39.35 68.771 88.502 81.04z" class="style4"/></svg>
