<svg xmlns="http://www.w3.org/2000/svg" xmlns:xlink="http://www.w3.org/1999/xlink" version="1.1" x="0px" y="0px" width="920px" height="320px" viewBox="0 0 920 320" xml:space="preserve" class="style0"><style>.style0{enable-background:	new 0 0 920 320;}.style1{fill:	#669999;}.style2{opacity:	0.5;}.style3{fill:	#FFFFFF;}.style4{opacity:	0.25;}.style5{opacity:	0.5;fill:	#FFFFFF;}</style><path d="M917.473 98.294c-6.948-13.868-13.265-29.626-13.265-29.626 c-4.422-20.801-10.107-20.801-10.107-20.801c-6.317-8.825-27.793-3.782-27.793-3.782c-10.107 5.673-85.275 26.475-103.593 31.5 c-18.318 5.043-144.652 40.973-144.652 40.973c-39.795-14.498-136.44-15.759-136.44-15.759 c-105.488-3.782-165.497 19.541-165.497 19.541c-37.9 23.953-59.377 10.716-59.377 10.716c-20.213 0-36.637-13.237-36.637-13.237 C196.11 97.7 130.4 73.1 130.4 73.08c20.213-3.782 139.598-46.646 139.598-46.646c80.222-26.475 111.2 2.5 111.2 2.5 C407.719 44.1 460 88.2 460 88.208c24.488 17.6 29.835-6.934 29.835-6.934c1.263-17.65-3.79-19.541-44.848-40.342 S393.19 11.3 364.1 3.742c-29.057-7.564-66.957-2.521-120.017 5.043S55.249 47.9 55.2 47.866l-4.422 0.6 c-24.635-1.891-30.952 0.63-30.952 0.63C-7.918 51.6 1.6 86.9 1.6 86.948c17.687 79.4 64.4 136.8 64.4 136.8 c48.007 52.3 104.2 45.4 104.2 45.385c39.795 1.3 60.64-37.821 60.64-37.821c14.528-17.019 18.318-49.973 18.318-49.973 c25.898 6.1 29.7 17.2 29.7 17.195c10.107 12 27.2 41.6 27.2 41.603c54.955 90.8 156.7 79.4 156.7 79.4 c84.643 1.3 126.965-85.097 126.965-85.097c10.738-16.389 34.11-56.101 34.11-56.101c0.632 0 52.428-22.529 52.428-22.529 c42.322-10.552 135.808-55.635 135.808-55.635c19.582-11.346 62.535-34.669 62.535-34.669c18.318 1.9 25.3 60.5 26.5 64.9 c1.263 4.4 10.7 21.4 16.423-2.521S917.473 98.3 917.5 98.294z M206.217 231.9 c-13.265 39.082-69.483 19.541-69.483 19.541c-48.301-16.203-68.852-57.992-79.59-81.315c-0.347-0.755-0.683-1.507-1.007-2.257 c-9.691-22.43-9.1-42.498-9.1-42.498c8.843-17.65 10.107-28.996 10.107-28.996c7.58 1.3 40.427-13.868 40.427-13.868 c58.745 15.1 87.8 42.2 87.8 42.233C243.485 177.7 206.2 231.9 206.2 231.928z M551.107 219.3 c0 0-15.16 113.463-137.072 78.794c0 0-32.215 0.63-55.587-46.646c-6.008-12.153-9.131-18.172-10.462-20.424 c5.065 11 7.3 18.5 7.3 18.533s-11.152-25.041-7.304-18.533c-5.702-12.38-14.986-29.147-28.701-44.502 c-3.562-3.988-6.139-6.909-7.943-8.991c-4.921-5.104-9.938-12.028-7.848-17.552c0 0 2.065-15.691 22.74-25.146 c0 0 58.113-25.844 161.075-3.782C487.309 131.1 573.2 148.7 551.1 219.321z" class="style1"/><g class="style2"><path d="M537.413 112.862c14.971 1.1 31.1 7.8 31.1 7.8 c19.339 11.9 32.7 18.3 32.7 18.308c8.43-8.412 6.042-11.29 6.042-11.29C604.35 115.8 537.4 112.9 537.4 112.862z" class="style3"/><path d="M569.052 150.377c0 0 10.909-11.381-5.454-11.381C563.598 139 555.2 150.9 569.1 150.377z " class="style3"/><path d="M563.598 165.221c0.496 9.4 6 6.9 6 6.928c2.479 3.959-2.71 9.896-2.71 9.9 c12.659-7.039 5.686-16.824 5.686-16.824C568.064 158.8 563.6 165.2 563.6 165.221z" class="style3"/><path d="M851.899 49.56c0 0-90.92 26.462-127.413 36.806s-97.081 27.58-106.423 30.2 c0 0-2.622-3.716-31.124-7.483c0 0 39.6 9.6 38.6 21.987l1.983-8.907c0 0 110.08-35.132 142.807-44.039 s65.949-18.308 78.346-22.762c12.396-4.453 35.234-15.998 45.385-7.504C894.102 47.9 884.6 34.6 851.9 49.56z" class="style3"/><path d="M627 176.602v-26.211c0 17.334-4.311 27.962-4.311 27.962L627 176.602z" class="style3"/><path d="M361.948 258.084c-19.004-47.573-50.606-80.532-50.606-80.532 c-4.823 10.8 11.8 36.7 11.8 36.657C343.437 250.3 361.9 258.1 361.9 258.084z" class="style3"/><path d="M361.948 277.546c0 0-50.742-38.101-61.651-89.068c0 0-6.942-25.221 10.165-43.784 c0 0-23.057 13.105-9.669 56.65c0 0 13.9 43 52.1 74.223c0 0 30.2 25.7 70.9 32.658c0 0 56 11 83.385-17.196 C507.151 291 450.9 334.9 361.9 277.546z" class="style3"/><path d="M187.242 108.811c0 0-14.876-5.443 0 1.484c0.988 0.5 1.9 0.9 2.8 1.4 C188.307 110 187.2 108.8 187.2 108.811z" class="style3"/><path d="M190.075 111.667c3.769 3.6 10.7 9.6 17.5 12 C207.572 123.7 202.8 118 190.1 111.667z" class="style3"/><path d="M36.005 133.058c0 0-12.396-42.06 8.925-52.946c0 0-31.239-2.969-2.479 78.7 c0 0 24.3 54.4 57.5 78.182C99.971 237 53.4 194.4 36 133.058z" class="style3"/><path d="M11.708 94.462c-0.992 10.9 4 6.9 4 6.928C16.667 91.5 11.7 94.5 11.7 94.462z" class="style3"/><path d="M8.733 74.174c0 0-1.983 9.4 5 9.402C13.692 83.6 17.4 75.2 8.7 74.174z" class="style3"/></g><g class="style4"><path d="M919.274 102.466c-4.317-11.789-11.551-17.901-15.881-37.349 c-0.201-0.904-0.404-1.762-0.608-2.575c-4.174-16.673-8.683-14.676-8.683-14.676c-11.638-6.02-47.865 11.463-47.865 11.5 c-24.777 12.207-38.921 43.084-38.921 43.084c4.009-1.894 67.204-36.897 67.204-36.897c30.897-16.92 41.1 68.6 41.1 68.6 C920.49 125.3 919.3 102.5 919.3 102.466z" class="style5"/><path d="M326.082 115.863c0 0 56.032-11.01 130.411-10.515c0 0 106.9 0.7 151.1 10.5 c0 0-21.321-12.846-111.026-14.649C496.612 101.2 386.3 97.7 326.1 115.863z" class="style5"/><path d="M346.908 255.774c0 0 9.7 12.1 18.3 15.8 C365.255 271.6 359.4 253.8 346.9 255.774z" class="style5"/><path d="M310.463 231.528c14.132 35.1 67.2 66.3 67.2 66.3 C338.479 271.6 310.5 231.5 310.5 231.528z" class="style5"/><path d="M230.382 199.859c-6.446 31.174-29.572 61.672-29.572 61.7 c9.819-4.422 24.521-21.899 24.521-21.899c18.25-17.935 23.84-58.307 23.84-58.307 C228.291 178.6 230.4 199.9 230.4 199.859z" class="style5"/><path d="M274.513 134.047c0 0-26.964-0.251-49.523-12.864c0 0-24.261-17.823-48.067-28.406 c0 0 38.6 21 40.6 30.878c0 0-5.95 7.4 4.5 10.391c0 0 50.1 5.9 58.5 6.433c1.075 0.1 1.9 0.1 2.5 0.2 c4.524-3.192 14.356-9.986 21.287-13.726C304.202 127 285.4 137 274.5 134.047z" class="style5"/><path d="M282.915 140.713c-1.528 1.078-2.452 1.747-2.452 1.7 S286.877 141.3 282.9 140.713z" class="style5"/><path d="M44.931 80.112c0 0-16.858 11.574-4.959 51.956c0 0 10.8 45.6 32.4 66.9 c0 0-25.489-42.119-26.481-68.344c0 0 1.488-7.422 5.95-16.824c0 0 6.08-7.993 5.271-17.357c0 0 14.721-3.032 40.427-13.868 C97.571 82.5 63.3 72.7 44.9 80.112z" class="style5"/></g><path d="M130.417 73.08c0 0-43.446-18.757-79.59-24.584c0 0 168.067-36.198 193.29-39.712 C244.117 8.8 170.1 26.3 130.4 73.08z" class="style4"/><path d="M910.004 104.978c0 0-10.672-50.924-35.484-39.462C874.52 65.5 895.6 64.4 910 104.978z" class="style4"/><path d="M533.521 297.834c0 0 73.547-79.487 82.803-153.14c0 0 10.6 14.3 6.9 33.7 C623.253 178.4 575 274.6 533.5 297.834z" class="style4"/><path d="M387.14 291.641c0 0-93.12-46.534-88.659-129.279C298.481 162.4 296.1 233.2 387.1 291.641z" class="style4"/><path d="M66.646 77.342c0 0-61.559-14.989-19.737 85.02C46.909 162.4 10.2 75.7 66.6 77.342z" class="style4"/><path d="M249.17 181.325c0 0-15.979-5.712-18.789 18.534c0 0 13.1 37.08-29.572 61.7 C200.809 261.5 246.3 231.5 249.2 181.325z" class="style4"/><path d="M274.513 144.694c0 0-16.579 30.861-56.553-12.49C217.96 132.2 240.1 153.7 274.5 144.694z" class="style4"/><path d="M136.734 251.469c0 0-44.474-0.784-85.907-81.04s-2.629 0-2.629 0S87.548 239.2 136.7 251.469z" class="style4"/></svg>