<svg xmlns="http://www.w3.org/2000/svg" width="920" height="320" viewBox="0 0 920 320"><path fill="#699" d="M917.5 98.3c-6.9-13.9-13.3-29.6-13.3-29.6-6.4-21-8.1-20.3-8.1-20.3-6.3-8.8-29.4-4.1-29.4-4.1-10.1 5.7-85.8 26.4-104.1 31.4-18.3 5-144.7 41-144.7 41-39.8-14.5-136.4-15.8-136.4-15.8-105.5-3.8-165.5 19.5-165.5 19.5-37.9 24-59.8 12.4-59.8 12.4-20.2 0-36.3-14.9-36.3-14.9-24-20.1-89.7-44.7-89.7-44.7 20.4-3.9 139.8-46.8 139.8-46.8 80.2-26.5 111.2 2.5 111.2 2.5 26.5 15.2 78.8 59.3 78.8 59.3 24.5 17.6 29.8-6.9 29.8-6.9 1.3-17.7-3.8-19.5-44.8-40.3s-51.8-29.6-80.9-37.2c-29.1-7.6-67-2.5-120 5-53.1 7.5-188.9 39.1-188.9 39.1l-4.4.6c-24.6-1.9-31 .6-31 .6-27.7 2.5-18.2 37.8-18.2 37.8 17.7 79.4 64.4 136.8 64.4 136.8 48 52.3 104.2 45.4 104.2 45.4 39.8 1.3 60.6-37.8 60.6-37.8 14.5-17 18.3-50 18.3-50 22.3 4.7 29.7 17.2 29.7 17.2 10.1 12 27.2 41.6 27.2 41.6 55 90.8 156.7 79.4 156.7 79.4 84.6 1.3 127-85.1 127-85.1 10.7-16.4 34.1-56.1 34.1-56.1.6 0 52.4-22.5 52.4-22.5 42.3-10.6 135.8-55.6 135.8-55.6 19.6-11.3 62.5-34.7 62.5-34.7 18.3 1.9 25.3 60.5 26.5 64.9 1.3 4.4 10.7 21.4 16.4-2.5 5.9-23.9.1-29.6.1-29.6zm-710.9 132.9c-13.6 36.9-69.9 20.2-69.9 20.2-48.3-16.2-66.8-56.2-80.3-80.1-3.6-4.9-3.4-1.9-3.7-2.7-9.7-22.4-9.2-41.3-9.2-41.3-2.2-27.4 13-33.7 13-33.7 10.5-7 41.1-11.2 41.1-11.2 58.7 15.1 87.8 42.2 87.8 42.2 58.1 53.1 21.2 106.6 21.2 106.6zm344.5-11.9s-15.2 113.5-137.1 78.8c0 0-33.8-4.9-55.6-46.6-6-12.2-9.1-18.2-10.5-20.4 5.1 11 7.3 18.5 7.3 18.5s-11.2-25-7.3-18.5c-5.7-12.4-15-29.1-28.7-44.5-3.6-4-6.1-6.9-7.9-9-4.9-5.1-9.9-12-7.8-17.6 0 0 2.1-15.7 22.7-25.1 0 0 58.1-25.8 161.1-3.8 0 0 85.9 17.6 63.8 88.2z"/><path fill="#B3CCCC" d="M537.4 113.3c17.2 3.5 31.1 7.8 31.1 7.8 34.5 7.2 32.7 18.3 32.7 18.3 8.4-8.4 6-11.3 6-11.3-2.9-11.9-69.8-14.8-69.8-14.8zm314.8-63.8s-5.2 1.9-13.2 4.3c-26.4 7.7-86.5 25.1-114.5 33.1-36.5 10.2-97.1 27.5-106.4 30.1 0 0-2.6-3.7-31.1-7.5 0 0 40.3 8.4 39.8 26.7l.8-13.6s110.1-35.1 142.8-44c32.7-8.9 65.9-18.3 78.3-22.8 12.4-4.5 37.6-15.7 47.7-7.2 0 0-10.1-14.5-42.8.5l-1.4.4zm-214.1 122.8c.5-.2-7.2 3-8.5.4-3.2-6.3-2.6-21.9-2.6-21.9-1.2 18.1-4.3 28-4.3 28s13.8-5.8 15.4-6.5zm-275.7 86.1c-27.6-64.1-51.1-80.5-51.1-80.5-4.8 10.8 11.8 36.7 11.8 36.7 20.3 36.1 37.4 43.2 37.4 43.2l1.9.6zm-.5 19.6s-50.7-38.1-61.7-89.1c0 0-6.9-25.2 10.2-43.8 0 0-23.1 13.1-9.7 56.7 0 0 13.9 43 52.1 74.2 0 0 30.2 25.7 70.9 32.7 0 0 56 11 83.4-17.2.1-.1-56.2 43.8-145.2-13.5zm-154.3-153.9s-3.6-5.2-16.4-12.6m-155.2 22s-12.4-42.1 8.9-52.9c0 0-31.2-3-2.5 78.7 0 0 25.7 54.3 58.9 78.1.1-.1-47.9-42.6-65.3-103.9zm-27.3-58.9"/><path fill="#7AA6A6" d="M919.3 102.5c-4.3-11.8-11.6-17.9-15.9-37.3-.2-.9-.4-1.8-.6-2.6-4.2-16.7-8.7-14.7-8.7-14.7-11.6-6-47.9 11.5-47.9 11.5-24.8 12.2-38.9 43.1-38.9 43.1 4-1.9 67.2-36.9 67.2-36.9 30.9-16.9 41.1 68.6 41.1 68.6 4.9-8.9 3.7-31.7 3.7-31.7zm-603.9 18.3s66.7-16 141.1-15.5c0 0 106.9.7 151.1 10.5 0 0-21.3-12.8-111-14.6 0 0-105.8-4.3-166 13.8 0 0-4.5 1.2-6.5 1.9-4.7 1.7-8.7 3.9-8.7 3.9zm31.5 135s9.7 12.1 18.3 15.8c.1 0-5.8-17.8-18.3-15.8zm-36.4-24.3c14.1 35.1 67.2 66.3 67.2 66.3-39.2-26.2-67.2-66.3-67.2-66.3zm-80.1-31.6c-6.4 31.2-29.6 61.7-29.6 61.7 9.8-4.4 24.5-21.9 24.5-21.9 18.2-17.9 23.8-58.3 23.8-58.3-15.9-3.3-18.7 18.5-18.7 18.5zm44.1-65.9s-27-.3-49.5-12.9c0 0-24.3-17.8-48.1-28.4 0 0 34.5 18.3 40.6 30.9 0 0 7.8 9.1 9.2 10.8 0 0 9.9 5.9 20 7.7 5.3.9 8.2 1.4 14.9 1.6 7.1.2 12.9-1.3 15.6-1.1 1.1.1 4.9-1.5 5.5-1.4 4.5-3.2 14.6-10.6 21.6-14.3-.1.1-12.1 8.2-29.8 7.1zm-229.6-53.9s-16.9 11.6-5 52c0 0 10.8 45.6 32.4 66.9 0 0-28.1-41.8-29.1-68 0 0-.7-15.2 3.8-24.6 0 0 3-7.7 7.4-9.6 0 0 6.3-5.1 43-14.2.2-.1-34.1-9.9-52.5-2.5z"/><path fill="#4D7373" d="M128.4 72.2s-41.4-17.9-77.6-23.7c0 0 168.1-36.2 193.3-39.7 0 0-74 17.5-113.7 64.3l-2-.9zm781.6 32.8s-10.7-50.9-35.5-39.5c0 0 21.1-1.1 35.5 39.5zm-376.5 192.8s73.5-79.5 82.8-153.1c0 0 11.1 14.5 7.4 33.9 0 0-48.7 96-90.2 119.2zm-153.6-9.3s-83.8-43-79.3-125.8c0 0-4.5 70.5 86.5 128.9l-7.2-3.1zm-313.3-211.2s-61.6-15-19.7 85c0 .1-36.7-86.6 19.7-85zm182.6 104s-16-5.7-18.8 18.5c0 0 6.5 33.1-29.6 61.7 0 0 41.2-20.7 48.4-80.2zm26.4-34.9c-1.5 1-27.7 18.2-49.6-12.8 0 0 20.7 13.9 56.7 7.6.1 0-6 4.5-7.1 5.2zm-138.9 105.1s-44.5-.8-85.9-81l-1.6-4.4s38.3 73.1 87.5 85.4z"/><ellipse fill="#B3CCCC" cx="568.6" cy="142.2" rx="3.9" ry="5.9"/><ellipse fill="#B3CCCC" cx="564" cy="167.5" rx="4.3" ry="6.5"/><ellipse fill="#B3CCCC" cx="15.1" cy="80.2" rx="2.6" ry="4"/><ellipse fill="#B3CCCC" cx="18.7" cy="97.3" rx="2.9" ry="4.4"/></svg>
