<svg xmlns="http://www.w3.org/2000/svg" viewBox="0 0 3120 2023" enable-background="new 0 0 3120 2023"><path fill="#fff" d="M0 0h3120v2022h-3120z"/><path fill="none" d="M1950.6 674h-.6l.3.5z"/><path fill="#F9F9F9" d="M2535 1011h.6l194.7-336.5-.3-.5h-389.4l-.3.5z"/><path fill="#F5F5F5" d="M1755 1011h.6l194.7-336.5-.3-.5h-389.4l-.3.5z"/><path fill="none" d="M2340.6 674h-.6l.3.5z"/><path fill="#F7F7F7" d="M2145 1011h.6l194.7-336.5-.3-.5h-389.4l-.3.5z"/><path fill="none" d="M1170.6 674h-.6l.3.5zM1560.6 674h-.6l.3.5z"/><path fill="#FCFCFC" d="M975 1011h.6l194.7-336.5-.3-.5h-389.4l-.3.5z"/><path fill="#F9F9F9" d="M1365 1011h.6l194.7-336.5-.3-.5h-389.4l-.3.5z"/><path fill="none" d="M780.6 674h-.6l.3.5z"/><path fill="#EFEFEF" d="M1170.6 1348h389.4l-194.7-336.5z"/><path fill="#F1F1F1" d="M1365 1011h-389.4l-.3.5 194.7 336.5h.6l194.7-336.5z"/><path fill="none" d="M1365.6 1011h-.6l.3.5zM2145.6 1011h-.6l.3.5z"/><path fill="#F0F0F0" d="M1755 1011h-389.4l-.3.5 194.7 336.5h.6l194.7-336.5z"/><path fill="none" d="M2535.3 1011.5l.3-.5h-.6zM2925.6 337h-.6l.3.5z"/><path fill="#F2F2F2" d="M1950.6 1348h389.4l-194.7-336.5z"/><path fill="#F3F3F3" d="M2145.6 1011l-.3.5 194.7 336.5h.6l194.7-336.5-.3-.5z"/><path fill="#eee" d="M2145 1011h-389.4l-.3.5 194.7 336.5h.6l194.7-336.5z"/><path fill="none" d="M1755.6 1011h-.6l.3.5zM2730.3 1348.5l.3-.5h-.6z"/><path fill="#F8F8F8" d="M2535.6 1011l-.3.5 194.7 336.5h.6l194.7-336.5-.3-.5zM2340.6 1348l-.3.5 194.7 336.5h.6l194.7-336.5-.3-.5z"/><path fill="#F7F7F7" d="M1755.6 1685h389.4l-194.7-336.5z"/><path fill="#F8F8F8" d="M2340 1348h-389.4l-.3.5 194.7 336.5h.6l194.7-336.5z"/><path fill="#F4F4F4" d="M2145.6 1685h389.4l-194.7-336.5z"/><path fill="none" d="M2925.3 1011.5l.3-.5h-.6zM3120.3 674.5l.3-.5h-.6z"/><path fill="#F7F7F7" d="M2730.6 674l-.3.5 194.7 336.5h.6l194.7-336.5-.3-.5z"/><path fill="#F9F9F9" d="M780.3 674.5l-.3-.5h-389.4l-.3.5 194.7 336.5h.6z"/><path fill="#F8F8F8" d="M780 1348h-389.4l-.3.5 194.7 336.5h.6l194.7-336.5z"/><path fill="#F5F5F5" d="M585.6 1685h389.4l-194.7-336.5zM585.3 1011.5l-194.7 336.5h389.4z"/><path fill="#F4F4F4" d="M780.6 1348l194.7-336.5-.3-.5h-389.4l-.3.5 194.7 336.5z"/><path fill="none" d="M585 1011l.3.5.3-.5z"/><path fill="#F7F7F7" d="M1170 1348h-389.4l-.3.5 194.7 336.5h.6l194.7-336.5z"/><path fill="#F9F9F9" d="M1365.6 1685h389.4l-194.7-336.5z"/><path fill="#F8F8F8" d="M1560 1348h-389.4l-.3.5 194.7 336.5h.6l194.7-336.5zM975.6 1685h389.4l-194.7-336.5z"/><path fill="#FAFAFA" d="M1950 1348h-389.4l-.3.5 194.7 336.5h.6l194.7-336.5z"/><path fill="#F1F1F1" d="M1560.6 1348h389.4l-194.7-336.5z"/><path fill="#FAFAFA" d="M3120 1348l-194.7-336.5-194.7 336.5z"/><path fill="#F7F7F7" d="M2340.3 674.5l-194.7 336.5h389.4zM2340.3.5l-194.7 336.5h389.4z"/><path fill="#F5F5F5" d="M2730.3.5l-194.7 336.5h389.4zM195.6 1685h389.4l-194.7-336.5z"/><path fill="#F3F3F3" d="M.6 674h389.4l-194.7-336.5z"/><path fill="none" d="M390 1348l.3.5.3-.5zM390 674l.3.5.3-.5z"/><path fill="#F7F7F7" d="M195.6 1011h389.4l-194.7-336.5z"/><path fill="none" d="M0 1348l.3.5.3-.5z"/><path fill="#F4F4F4" d="M585.3 337.5l-194.7 336.5h389.4z"/><path fill="#F1F1F1" d="M390.3.5l-194.7 336.5h389.4z"/><path fill="#F7F7F7" d="M1170.3.5l-194.7 336.5h389.4z"/><path fill="#F5F5F5" d="M1560.3.5l-194.7 336.5h389.4z"/><path fill="#F7F7F7" d="M1950.3.5l-194.7 336.5h389.4z"/><path fill="#F4F4F4" d="M780.3.5l-194.7 336.5h389.4z"/><path fill="#F0F0F0" d="M2925 1685l-194.7-336.5-194.7 336.5z"/><path fill="none" d="M780.3 1348.5l.3-.5h-.6z"/><path fill="#F5F5F5" d="M780.6 1348h389.4l-194.7-336.5z"/><path fill="#F7F7F7" d="M975.3 337.5l-194.7 336.5h389.4z"/><path fill="none" d="M1170.3 1348.5l.3-.5h-.6zM1560.3 1348.5l.3-.5h-.6z"/><path fill="#F8F8F8" d="M1950.3 674.5l-194.7 336.5h389.4z"/><path fill="none" d="M975 1011l.3.5.3-.5z"/><path fill="#F7F7F7" d="M1560.3 674.5l-194.7 336.5h389.4z"/><path fill="none" d="M1950.3 1348.5l.3-.5h-.6z"/><path fill="#F9F9F9" d="M1170.3 674.5l-194.7 336.5h389.4z"/><path fill="#FBFBFB" d="M585.6 1011h389.4l-194.7-336.5z"/><path fill="#F8F8F8" d="M1755.3 337.5l-194.7 336.5h389.4z"/><path fill="none" d="M2340.3 1348.5l.3-.5h-.6z"/><path fill="#F7F7F7" d="M1365.3 337.5l-194.7 336.5h389.4z"/><path fill="#F3F3F3" d="M2535.3 337.5l-194.7 336.5h389.4z"/><path fill="#F8F8F8" d="M2145.3 337.5l-194.7 336.5h389.4z"/><path fill="#F4F4F4" d="M2925.3 337.5l-194.7 336.5h389.4z"/><path fill="#FBFBFB" d="M2925 1011l-194.7-336.5-194.7 336.5z"/><path fill="#FAFAFA" d="M2730 1348l-194.7-336.5-194.7 336.5z"/><path fill="none" d="M2730.6 674h-.6l.3.5z"/><path fill="#F2F2F2" d="M585 337h.6l194.7-336.5-.3-.5h-389.4l-.3.5z"/><path fill="#F3F3F3" d="M2730 674h.6l194.7-336.5-.3-.5h-389.4l-.3.5z"/><path fill="none" d="M390.6 0h-.6l.3.5z"/><path fill="#F4F4F4" d="M2925 337h.6l195-337h-390l-.3.5z"/><path fill="none" d="M780.6 0h-.6l.3.5z"/><path fill="#FBFBFB" d="M975 337h.6l194.7-336.5-.3-.5h-389.4l-.3.5z"/><path fill="none" d="M2340.6 0h-.6l.3.5zM2730.6 0h-.6l.3.5z"/><path fill="#F8F8F8" d="M2535 337h.6l194.7-336.5-.3-.5h-389.4l-.3.5z"/><path fill="none" d="M1950.6 0h-.6l.3.5z"/><path fill="#F3F3F3" d="M2145 337h.6l194.7-336.5-.3-.5h-389.4l-.3.5z"/><path fill="#F4F4F4" d="M1755 337h.6l194.7-336.5-.3-.5h-389.4l-.3.5z"/><path fill="none" d="M1170.6 0h-.6l.3.5z"/><path fill="#F4F4F4" d="M1365 337h.6l194.7-336.5-.3-.5h-389.4l-.3.5z"/><path fill="none" d="M1560.6 0h-.6l.3.5z"/><path fill="#F2F2F2" d="M195.6 337l194.7-336.5-.3-.5h-390l195 337z"/><path fill="none" d="M2340 2023h.6l-.3-.5z"/><path fill="#F8F8F8" d="M2535.3 1685.5l-195 337 .3.5h389.4l.3-.5z"/><path fill="#FBFBFB" d="M1755.3 1685.5l-195 337 .3.5h389.4l.3-.5z"/><path fill="none" d="M1950 2023h.6l-.3-.5z"/><path fill="#F9F9F9" d="M2145.3 1685.5l-195 337 .3.5h389.4l.3-.5z"/><path fill="none" d="M2730 2023h.6l-.3-.5z"/><path fill="#EFEFEF" d="M2730.3 2022.5l.3.5h390l-195.3-337.5z"/><path fill="#FAFAFA" d="M195.3 1685.5l-195.3 337.5h390l.3-.5z"/><path fill="none" d="M390 2023h.6l-.3-.5zM1560 2023h.6l-.3-.5z"/><path fill="#FEFEFE" d="M585.3 1685.5l-195 337 .3.5h389.4l.3-.5z"/><path fill="none" d="M1170 2023h.6l-.3-.5z"/><path fill="#FCFCFC" d="M1365.3 1685.5l-195 337 .3.5h389.4l.3-.5z"/><path fill="none" d="M780 2023h.6l-.3-.5z"/><path fill="#FAFAFA" d="M975.3 1685.5l-195 337 .3.5h389.4l.3-.5z"/><path fill="none" d="M585.6 337h-.6l.3.5z"/><path fill="#F4F4F4" d="M390.3 674.5l-.3-.5h-389.4l-.3.5 194.7 336.5h.6z"/><path fill="none" d="M0 674l.3.5.3-.5z"/><path fill="#F5F5F5" d="M390 674h.6l194.7-336.5-.3-.5h-389.4l-.3.5z"/><path fill="none" d="M195 1685l.3.5.3-.5z"/><path fill="#F6F6F6" d="M195 1685l-194.7-336.5-.3.5v336z"/><path fill="#F4F4F4" d="M195 1011l-194.7-336.5-.3.5v336z"/><path fill="#F7F7F7" d="M0 1348h.6l194.7-336.5-.3-.5h-195z"/><path fill="#F5F5F5" d="M0 2023l195.3-337.5-.3-.5h-195z"/><path fill="#F4F4F4" d="M195 337l-195-337v337z"/><path fill="#F5F5F5" d="M0 674h.6l194.7-336.5-.3-.5h-195z"/><path fill="none" d="M195 1011l.3.5.3-.5z"/><path fill="#F5F5F5" d="M195.3 1011.5l-194.7 336.5h389.4zM390.3 1348.5l-.3-.5h-389.4l-.3.5 194.7 336.5h.6zM390.6 1348l194.7-336.5-.3-.5h-389.4l-.3.5 194.7 336.5z"/><path fill="none" d="M195.6 337h-.6l.3.5zM1755.6 337h-.6l.3.5z"/><path fill="#F6F6F6" d="M1950 674h.6l194.7-336.5-.3-.5h-389.4l-.3.5z"/><path fill="none" d="M2145.6 337h-.6l.3.5z"/><path fill="#FAFAFA" d="M2340 674h.6l194.7-336.5-.3-.5h-389.4l-.3.5z"/><path fill="#F6F6F6" d="M780 674h.6l194.7-336.5-.3-.5h-389.4l-.3.5z"/><path fill="none" d="M2535.6 337h-.6l.3.5zM975.6 337h-.6l.3.5z"/><path fill="#F6F6F6" d="M1170 674h.6l194.7-336.5-.3-.5h-389.4l-.3.5z"/><path fill="none" d="M1365.6 337h-.6l.3.5z"/><path fill="#F8F8F8" d="M1560 674h.6l194.7-336.5-.3-.5h-389.4l-.3.5z"/><path fill="none" d="M3120.3 1348.5l.3-.5h-.6zM2925.3 1685.5l.3-.5h-.6z"/><path fill="#EDEDED" d="M2730.6 1348l-.3.5 194.7 336.5h.6l194.7-336.5-.3-.5z"/><path fill="none" d="M2535 1685l.3.5.3-.5z"/><path fill="#F9F9F9" d="M2535.6 1685l-.3.5 195 337 195-337-.3-.5z"/><path fill="#FBFBFB" d="M2145.6 1685l-.3.5 195 337 195-337-.3-.5zM195.6 1685l-.3.5 195 337 195-337-.3-.5z"/><path fill="#F5F5F5" d="M2925.6 337l-.3.5 194.7 336.5v-337z"/><path fill="#F4F4F4" d="M3120 675l-194.4 336h194.4z"/><path fill="#F6F6F6" d="M3120 1349l-194.4 336h194.4z"/><path fill="#F5F5F5" d="M2925.6 1685l-.3.5 194.7 336.5v-337z"/><path fill="#F4F4F4" d="M3120 1l-194.4 336h194.4z"/><path fill="#F7F7F7" d="M2925.6 1011l-.3.5 194.7 336.5v-337z"/><path fill="#FCFCFC" d="M975.6 1685l-.3.5 195 337 195-337-.3-.5z"/><path fill="#FDFDFD" d="M585.6 1685l-.3.5 195 337 195-337-.3-.5z"/><path fill="none" d="M975 1685l.3.5.3-.5zM585 1685l.3.5.3-.5z"/><path fill="#FCFCFC" d="M1365.6 1685l-.3.5 195 337 195-337-.3-.5zM1755.6 1685l-.3.5 195 337 195-337-.3-.5z"/><path fill="none" d="M1755 1685l.3.5.3-.5zM1365 1685l.3.5.3-.5zM2145 1685l.3.5.3-.5z"/></svg>